<?xml version="1.0" standalone="no"?>
<!DOCTYPE svg PUBLIC "-//W3C//DTD SVG 20010904//EN"
 "http://www.w3.org/TR/2001/REC-SVG-20010904/DTD/svg10.dtd">
<svg version="1.0" xmlns="http://www.w3.org/2000/svg"
 width="1024.000000pt" height="1024.000000pt" viewBox="0 0 1024.000000 1024.000000"
 preserveAspectRatio="xMidYMid meet">
<metadata>
Created by potrace 1.14, written by Peter Selinger 2001-2017
</metadata>
<g transform="translate(0.000000,1024.000000) scale(0.100000,-0.100000)"
fill="#000000" stroke="none">
<path d="M6790 9222 c0 -4 10 -9 22 -9 18 -2 20 0 8 7 -18 12 -30 13 -30 2z"/>
<path d="M7048 9155 c-3 -3 -52 -6 -109 -7 -109 -1 -132 -5 -124 -18 3 -5 0
-12 -6 -16 -7 -4 -9 -3 -6 3 4 6 0 13 -8 17 -17 6 -29 -9 -19 -25 4 -8 0 -8
-15 0 -18 10 -21 9 -21 -6 0 -15 -2 -16 -10 -3 -9 13 -14 7 -11 -12 0 -5 -6
-8 -14 -8 -8 0 -15 -8 -15 -17 0 -10 -4 -14 -8 -8 -12 17 -32 16 -25 -1 3 -8
2 -14 -3 -12 -11 4 -60 -44 -56 -55 1 -4 -1 -6 -5 -6 -22 4 -33 -2 -27 -13 5
-7 2 -9 -9 -5 -9 3 -18 0 -21 -9 -4 -10 -1 -13 7 -9 6 4 3 0 -7 -9 -10 -8 -24
-12 -30 -9 -6 4 -4 -2 4 -12 8 -10 10 -16 4 -12 -6 4 -19 -2 -28 -12 -13 -15
-14 -20 -4 -24 7 -3 3 -6 -9 -6 -14 -1 -23 -7 -23 -17 0 -8 -4 -13 -9 -10 -5
3 -11 -4 -14 -15 -3 -12 -10 -18 -17 -14 -6 3 -10 3 -9 -2 3 -20 -2 -34 -11
-28 -5 3 -10 -3 -10 -14 0 -15 -4 -19 -17 -14 -16 6 -16 5 -4 -11 12 -15 12
-17 0 -14 -8 2 -13 -2 -12 -9 2 -8 -4 -10 -14 -6 -11 4 -14 3 -9 -6 5 -8 -4
-23 -25 -42 -19 -17 -27 -29 -18 -29 12 0 12 -2 -1 -9 -8 -6 -18 -7 -22 -5 -4
3 -5 -2 -2 -11 4 -10 2 -15 -7 -13 -8 2 -13 -4 -13 -14 1 -10 -2 -15 -7 -12
-5 3 -12 -2 -15 -10 -3 -9 -11 -13 -17 -9 -6 3 -7 1 -3 -5 3 -6 -9 -27 -29
-46 -19 -19 -35 -40 -35 -46 0 -6 -5 -8 -12 -4 -7 5 -9 1 -6 -13 4 -17 2 -19
-15 -15 -13 3 -18 1 -13 -6 3 -6 -1 -17 -10 -24 -9 -7 -30 -26 -48 -43 -17
-16 -34 -28 -38 -27 -5 1 -7 -1 -7 -6 4 -21 -3 -31 -16 -26 -11 5 -13 2 -8
-12 4 -12 3 -15 -5 -10 -7 4 -12 2 -12 -5 0 -7 -3 -10 -6 -6 -9 9 -32 -16 -27
-29 2 -7 -5 -11 -19 -10 -13 1 -31 -2 -40 -6 -14 -7 -18 -4 -18 9 0 15 -1 15
-13 -2 -11 -14 -16 -15 -22 -5 -6 9 -4 11 5 5 9 -5 11 -4 6 4 -4 6 -13 8 -19
4 -19 -12 -37 -12 -37 0 0 8 -3 8 -12 -1 -8 -8 -17 -8 -31 -1 -13 8 -17 8 -13
1 7 -12 -25 -8 -46 4 -6 4 -31 7 -55 7 -25 0 -43 4 -43 11 0 6 -5 4 -10 -4 -6
-10 -10 -11 -10 -2 0 6 -5 12 -11 12 -5 0 -7 -6 -3 -12 4 -7 -1 -6 -12 3 -21
18 -48 14 -37 -4 5 -9 3 -9 -8 -1 -17 14 -50 15 -66 2 -7 -6 -14 -4 -19 3 -5
8 -3 10 7 4 8 -5 11 -5 7 0 -5 5 -21 9 -37 9 -21 1 -27 -3 -24 -14 3 -11 0
-10 -10 3 -12 15 -16 15 -20 3 -4 -9 -14 -12 -26 -9 -12 3 -18 9 -15 14 3 5
-6 5 -19 0 -14 -6 -28 -7 -31 -3 -13 12 -37 10 -43 -5 -4 -11 -8 -12 -14 -2
-4 7 -17 13 -28 14 -11 1 -18 -2 -15 -6 2 -4 0 -10 -6 -14 -5 -3 -10 -1 -10 4
0 6 -7 11 -16 11 -9 0 -12 -5 -8 -12 6 -10 4 -10 -7 0 -15 14 -33 17 -25 4 3
-5 -1 -9 -9 -9 -8 0 -15 7 -15 16 0 13 -2 14 -9 2 -5 -8 -17 -16 -25 -17 -9
-1 -14 2 -10 7 8 13 -10 11 -24 -3 -9 -9 -12 -9 -12 2 0 9 -5 8 -15 -6 -10
-12 -13 -13 -10 -3 4 11 -1 15 -19 15 -14 0 -22 -4 -20 -8 3 -5 10 -5 16 -2 7
4 8 2 4 -5 -6 -9 -13 -9 -29 2 -22 14 -51 12 -43 -2 3 -4 -1 -8 -9 -8 -8 0
-12 4 -9 9 3 4 1 8 -5 8 -5 0 -12 -3 -15 -8 -2 -4 -20 -7 -40 -6 -20 1 -39 -2
-42 -7 -3 -5 -11 -9 -17 -9 -7 0 -6 4 3 10 12 8 9 10 -12 7 -15 -1 -30 -6 -34
-10 -4 -4 -13 -2 -21 5 -11 9 -13 8 -11 -2 2 -10 -6 -14 -24 -14 -16 1 -28 -4
-28 -10 0 -6 -5 -3 -11 6 -8 15 -13 16 -29 6 -10 -7 -16 -17 -12 -23 3 -5 -2
-4 -11 4 -11 8 -17 9 -17 3 0 -7 -7 -9 -17 -5 -12 5 -14 3 -8 -8 8 -12 6 -12
-8 0 -14 11 -17 11 -17 0 0 -11 -3 -11 -11 1 -8 11 -12 12 -16 3 -3 -9 -10
-10 -23 -3 -13 7 -21 7 -25 0 -4 -7 -15 -2 -27 12 -11 13 -24 22 -29 20 -5 -1
-9 3 -9 9 0 6 -7 9 -15 5 -13 -5 -14 -2 -4 15 6 11 8 23 5 27 -3 3 -6 0 -6 -6
0 -20 -20 -13 -30 11 -5 12 -9 16 -9 9 -1 -7 -6 -10 -11 -7 -6 4 -8 10 -5 15
3 5 0 12 -6 16 -8 4 -9 3 -5 -4 4 -7 2 -12 -3 -12 -6 0 -11 5 -11 11 0 19 -58
70 -64 56 -2 -7 -5 -4 -5 6 -1 18 -23 47 -36 47 -4 0 -13 6 -21 14 -11 11 -11
16 -1 19 7 3 5 6 -5 6 -10 1 -18 6 -18 11 0 6 -6 10 -14 10 -8 0 -18 5 -22 12
-4 7 -3 8 4 4 7 -4 12 -2 12 3 0 6 -7 11 -16 11 -8 0 -12 4 -9 10 4 6 -1 7
-11 3 -12 -4 -15 -3 -10 5 4 7 2 12 -4 12 -6 0 -8 5 -4 12 5 8 2 9 -10 5 -11
-4 -15 -3 -10 4 3 6 -3 17 -15 25 -12 9 -18 20 -15 26 4 7 2 8 -4 4 -7 -4 -12
-1 -12 9 0 9 -4 14 -8 11 -4 -2 -14 -1 -22 5 -11 6 -11 9 -2 9 8 0 4 9 -10 24
-13 13 -26 21 -30 19 -5 -2 -8 5 -8 16 0 11 -5 23 -12 27 -7 4 -8 3 -4 -4 4
-7 2 -12 -5 -12 -6 0 -9 8 -6 19 4 15 0 19 -15 16 -17 -4 -18 -2 -7 11 7 8 8
14 3 13 -22 -4 -34 2 -34 17 0 8 -4 12 -10 9 -9 -5 -14 7 -12 27 1 3 -6 12
-16 20 -16 12 -16 11 -2 -7 14 -20 14 -20 -7 -1 -12 10 -21 23 -20 30 1 6 -4
10 -11 8 -19 -4 -46 25 -29 31 7 3 4 6 -6 6 -12 1 -16 6 -11 14 4 6 4 9 -1 5
-7 -7 -65 18 -65 28 0 3 5 2 12 -2 7 -5 8 -3 4 5 -5 7 -14 10 -22 7 -8 -3 -13
0 -11 7 1 7 -6 11 -15 9 -11 -2 -18 3 -18 12 0 9 -7 13 -20 11 -11 -2 -19 1
-17 8 1 7 -8 12 -20 11 -13 0 -23 5 -23 13 0 11 -4 11 -21 2 -12 -6 -19 -7
-15 -1 3 5 -5 12 -19 14 -14 3 -25 1 -25 -5 0 -8 -3 -8 -11 0 -7 7 -21 8 -38
3 -15 -4 -35 -3 -44 2 -11 6 -17 5 -17 -2 0 -5 -5 -10 -11 -10 -5 0 -8 4 -4 9
3 6 -6 7 -22 2 -16 -5 -38 -4 -51 0 -15 6 -21 5 -17 -1 4 -7 -3 -9 -19 -6 -14
3 -26 0 -26 -5 0 -6 -5 -7 -10 -4 -5 3 -10 1 -10 -6 0 -7 -3 -9 -7 -6 -3 4
-12 2 -19 -4 -8 -6 -21 -9 -29 -5 -9 3 -13 2 -10 -4 3 -6 1 -10 -5 -10 -6 0
-9 -4 -5 -9 3 -6 -4 -8 -16 -6 -17 4 -19 2 -8 -11 10 -12 9 -13 -5 -8 -9 4
-16 1 -16 -6 0 -7 -7 -10 -15 -6 -10 4 -15 -1 -15 -14 0 -11 -5 -20 -11 -20
-5 0 -7 5 -3 12 5 7 3 8 -5 4 -7 -5 -10 -15 -7 -23 4 -8 1 -11 -5 -8 -6 4 -13
-3 -16 -15 -3 -12 -11 -19 -19 -16 -8 3 -11 -2 -9 -15 3 -15 0 -19 -11 -15 -9
3 -12 2 -8 -5 3 -6 -3 -19 -15 -30 -12 -11 -21 -29 -21 -39 0 -11 -4 -20 -10
-20 -5 0 -10 -9 -10 -21 0 -13 -4 -18 -12 -13 -7 4 -10 4 -6 -1 4 -4 3 -14 -4
-22 -9 -11 -7 -12 8 -7 18 5 18 5 2 -9 -10 -8 -18 -19 -18 -26 0 -6 -5 -11
-11 -11 -5 0 -7 -5 -4 -10 4 -6 1 -17 -5 -25 -10 -12 -10 -15 1 -15 10 -1 9
-5 -4 -14 -14 -11 -15 -15 -5 -19 8 -3 9 -6 1 -6 -6 -1 -9 -10 -5 -23 4 -16 2
-20 -10 -16 -11 5 -13 -1 -10 -22 2 -15 -1 -31 -7 -34 -6 -4 -11 -13 -11 -19
0 -7 4 -6 10 3 5 8 10 11 10 5 0 -5 -4 -17 -10 -25 -6 -9 -5 -20 3 -29 9 -12
9 -13 0 -7 -9 5 -13 -1 -13 -19 0 -18 4 -24 13 -19 6 4 2 -3 -11 -15 -19 -19
-22 -41 -6 -41 3 0 2 5 -2 12 -5 7 -3 8 6 3 10 -6 10 -10 -3 -20 -10 -7 -13
-16 -7 -25 6 -9 4 -17 -3 -22 -9 -6 -9 -8 1 -8 7 0 10 -5 7 -10 -4 -6 -11 -8
-16 -5 -5 3 -6 -1 -3 -9 3 -9 11 -13 18 -9 6 3 6 1 -1 -8 -7 -7 -13 -21 -13
-32 0 -12 -4 -16 -12 -11 -9 6 -9 3 1 -9 7 -9 11 -23 8 -31 -3 -8 -1 -17 6
-20 7 -2 8 -5 2 -5 -11 -1 -11 -103 0 -120 3 -6 1 -11 -6 -11 -8 0 -7 -5 2
-17 10 -11 10 -14 2 -9 -16 9 -17 -6 -1 -22 9 -9 8 -12 -7 -12 -16 0 -17 -2
-6 -9 8 -5 12 -18 8 -30 -3 -12 -2 -21 1 -21 4 0 7 -20 7 -45 0 -25 -4 -45 -9
-45 -6 0 -1 -7 10 -15 10 -8 13 -15 7 -15 -9 0 -10 -7 -3 -26 6 -14 6 -23 2
-20 -7 4 -9 -44 -2 -51 3 -4 7 -19 9 -34 0 -5 5 -8 10 -4 11 6 7 -28 -5 -46
-3 -6 0 -15 7 -20 12 -7 12 -10 1 -18 -8 -4 -14 -12 -15 -17 -1 -5 -8 -8 -15
-8 -9 2 -10 -1 -2 -12 9 -10 6 -12 -15 -8 -21 4 -26 1 -22 -9 3 -7 -1 -14 -9
-14 -7 0 -10 5 -7 11 4 6 -3 3 -14 -6 -11 -10 -24 -18 -30 -18 -6 0 -16 -7
-23 -15 -9 -11 -16 -12 -25 -5 -10 8 -15 8 -21 -1 -4 -8 -3 -9 4 -5 7 4 12 5
12 2 0 -3 -10 -10 -21 -17 -17 -9 -20 -8 -13 3 9 15 -23 -7 -44 -32 -8 -8 -11
-9 -7 -2 4 7 0 12 -9 12 -9 0 -16 -4 -16 -9 0 -5 -14 -11 -31 -15 -17 -3 -28
-10 -24 -16 5 -9 -41 -16 -69 -11 -5 1 -3 -6 5 -15 9 -12 10 -15 1 -10 -7 4
-28 -2 -50 -15 -31 -19 -35 -20 -22 -4 14 17 14 17 -7 5 -12 -8 -19 -19 -15
-25 3 -5 -3 -3 -13 5 -17 14 -18 13 -12 -3 6 -15 4 -16 -13 -7 -16 9 -18 8
-14 -5 4 -10 0 -15 -15 -15 -12 0 -21 -5 -21 -11 0 -8 -6 -7 -17 2 -9 8 -14 9
-11 4 4 -6 -5 -15 -18 -22 -13 -6 -22 -7 -18 -2 3 5 1 9 -4 9 -6 0 -12 -7 -16
-15 -3 -8 -13 -15 -21 -15 -9 0 -14 -4 -11 -9 3 -4 -2 -8 -12 -7 -31 1 -83
-14 -78 -23 11 -16 -42 -33 -61 -19 -7 6 -13 2 -17 -10 -5 -14 -14 -19 -36
-17 -16 1 -27 -1 -24 -6 3 -5 0 -9 -6 -9 -6 0 -9 -4 -6 -8 3 -5 -1 -9 -9 -9
-8 0 -12 5 -9 11 3 6 -1 3 -9 -6 -9 -12 -17 -14 -24 -7 -8 8 -13 7 -18 -2 -6
-8 -4 -10 5 -4 9 5 11 4 6 -4 -6 -9 -11 -9 -24 1 -9 8 -13 8 -9 2 8 -14 -20
-27 -35 -17 -6 3 -8 1 -4 -5 3 -6 2 -13 -4 -17 -5 -3 -10 0 -10 7 0 8 -3 9 -8
3 -4 -5 -16 -17 -26 -25 -16 -12 -18 -12 -11 -1 6 11 4 13 -9 8 -10 -4 -20 -7
-22 -7 -3 0 -2 -6 2 -12 4 -7 4 -10 -1 -6 -4 4 -15 2 -23 -5 -13 -9 -14 -9 -8
1 4 6 3 12 -3 12 -5 0 -11 -5 -13 -12 -2 -6 -15 -13 -28 -15 -13 -2 -27 -8
-31 -14 -5 -8 -9 -8 -14 0 -5 9 -10 9 -20 1 -8 -7 -20 -8 -27 -4 -9 5 -8 2 2
-12 8 -10 10 -16 6 -12 -5 4 -16 2 -24 -5 -13 -10 -14 -9 -7 3 7 12 6 13 -7 3
-8 -7 -18 -10 -21 -6 -4 3 -7 -2 -7 -12 0 -14 -3 -15 -14 -6 -11 9 -15 8 -20
-5 -5 -13 -9 -14 -21 -4 -8 7 -15 9 -15 4 0 -5 -5 -2 -11 6 -9 13 -10 13 -6
-2 3 -9 -2 -22 -11 -30 -11 -9 -14 -10 -8 0 4 6 2 12 -3 12 -6 0 -11 -8 -11
-17 0 -14 -2 -15 -9 -4 -6 9 -11 10 -15 2 -4 -6 -12 -9 -17 -6 -5 4 -9 1 -9
-5 0 -8 -6 -7 -21 1 -13 7 -19 7 -15 1 3 -6 2 -13 -4 -17 -5 -3 -10 0 -10 7 0
10 -2 10 -9 -1 -5 -7 -14 -10 -20 -7 -6 4 -11 0 -11 -11 0 -15 -2 -16 -10 -3
-7 10 -10 11 -10 2 0 -8 -9 -11 -24 -8 -18 3 -23 1 -19 -9 5 -15 -24 -14 -50
1 -9 6 -9 4 1 -8 11 -13 8 -15 -18 -12 -16 2 -30 0 -30 -5 0 -5 -12 -8 -26 -6
-14 1 -28 -3 -30 -10 -3 -6 -22 -11 -45 -11 -23 1 -43 -3 -47 -8 -3 -5 1 -6 8
-1 9 5 11 4 6 -4 -6 -9 -11 -9 -24 1 -12 10 -14 10 -8 1 4 -7 2 -13 -3 -13 -6
0 -11 6 -11 13 0 8 -3 9 -8 1 -4 -6 -17 -10 -30 -9 -12 1 -22 -2 -22 -6 0 -5
-7 -6 -16 -2 -9 3 -20 0 -25 -8 -7 -12 -9 -12 -9 1 -1 12 -3 11 -11 -3 -6 -9
-14 -15 -20 -12 -5 4 -9 0 -9 -7 0 -9 -3 -9 -10 2 -8 12 -10 12 -10 -5 0 -14
-3 -16 -9 -7 -6 10 -10 10 -21 -2 -7 -9 -16 -13 -21 -10 -5 3 -9 1 -9 -5 0 -6
-8 -7 -17 -4 -13 5 -15 2 -10 -11 4 -9 3 -15 -2 -12 -4 3 -17 -4 -27 -15 -10
-11 -23 -18 -30 -15 -7 3 -16 -4 -19 -15 -4 -10 -10 -17 -15 -14 -11 7 -33
-22 -25 -34 4 -7 -1 -8 -11 -4 -12 4 -15 3 -10 -5 7 -11 -7 -17 -29 -12 -5 1
-7 -2 -3 -6 4 -4 0 -13 -10 -21 -9 -8 -11 -11 -4 -8 11 6 12 3 3 -14 -7 -11
-14 -21 -17 -21 -3 0 -2 5 1 10 3 6 2 10 -3 10 -15 0 -22 -28 -9 -34 7 -2 4
-5 -7 -5 -15 -1 -16 -4 -6 -16 11 -13 10 -14 -1 -10 -9 3 -19 -6 -27 -25 -8
-17 -18 -28 -23 -25 -5 4 -6 -1 -3 -9 4 -9 1 -16 -6 -16 -10 0 -9 -4 0 -16 11
-12 11 -15 -1 -12 -8 2 -13 -3 -11 -9 1 -7 -2 -13 -7 -13 -6 0 -10 -8 -11 -17
-3 -61 -6 -70 -19 -65 -9 3 -12 1 -7 -6 3 -6 1 -14 -4 -17 -6 -4 -10 -17 -9
-28 2 -38 -1 -48 -12 -41 -8 5 -9 2 -2 -10 10 -19 5 -78 -6 -71 -4 2 -8 -2 -8
-10 0 -8 5 -15 10 -15 5 0 3 -8 -4 -17 -12 -15 -12 -16 1 -8 9 5 7 0 -4 -14
-20 -22 -20 -22 0 -16 19 7 19 6 0 -9 -15 -12 -16 -16 -5 -16 12 0 12 -2 -1
-10 -12 -8 -12 -10 5 -11 11 0 14 -3 7 -6 -6 -2 -9 -10 -5 -16 4 -7 -2 -5 -12
3 -19 15 -19 14 -2 -12 10 -16 14 -28 9 -28 -5 0 -8 -10 -6 -22 1 -13 3 -27 3
-31 1 -5 6 -5 12 -1 7 4 7 -1 -1 -16 -8 -15 -8 -20 -1 -16 15 10 14 -17 -1
-33 -10 -11 -10 -13 0 -7 12 7 13 4 16 -31 0 -10 7 -24 14 -32 12 -13 12 -17
-4 -28 -17 -12 -17 -13 2 -13 14 0 16 -3 6 -9 -11 -7 -11 -11 2 -24 9 -8 16
-20 16 -26 0 -6 4 -11 8 -11 4 0 8 -10 9 -22 1 -11 7 -24 14 -28 8 -6 8 -9 -2
-13 -10 -4 -10 -6 -1 -6 6 -1 12 -6 12 -12 0 -7 8 -19 17 -28 17 -15 22 -26
27 -59 1 -7 8 -18 16 -25 12 -10 12 -9 0 8 -9 13 -5 11 12 -5 14 -14 23 -31
20 -39 -4 -10 -1 -13 10 -9 10 4 15 1 14 -10 0 -10 5 -16 13 -14 8 2 11 -3 8
-13 -4 -9 -1 -15 8 -15 8 0 15 -6 15 -14 0 -8 9 -18 20 -21 11 -3 20 -11 20
-17 0 -5 7 -7 16 -4 8 3 13 2 11 -2 -3 -4 7 -18 21 -32 14 -14 21 -18 16 -10
-6 11 -3 10 7 -2 9 -9 19 -14 23 -11 3 4 6 -1 6 -10 0 -10 5 -14 15 -11 9 4
18 -1 21 -11 5 -13 9 -14 15 -3 7 10 9 9 9 -4 0 -11 8 -18 20 -18 11 0 20 -4
20 -10 0 -5 12 -10 26 -10 14 0 23 -4 19 -10 -6 -10 15 -14 44 -11 8 2 10 -2
5 -10 -5 -9 -2 -10 9 -6 10 3 17 2 17 -3 0 -6 5 -10 11 -10 5 0 7 4 4 10 -3 6
1 7 9 4 9 -3 16 -10 16 -15 0 -5 9 -9 21 -9 12 0 18 -4 13 -11 -4 -7 -1 -10 7
-7 8 3 23 1 34 -5 17 -9 18 -8 10 4 -5 8 -2 6 8 -4 16 -19 17 -19 18 -1 0 15
2 16 7 4 4 -8 16 -17 27 -18 11 -2 21 -8 23 -13 2 -5 10 -5 20 0 19 10 57 -10
44 -24 -4 -5 0 -4 8 1 22 13 39 14 46 2 4 -6 9 -6 14 3 7 10 11 9 23 -3 8 -8
29 -13 46 -12 17 1 31 -3 31 -9 0 -7 4 -7 12 1 14 14 32 16 24 3 -3 -5 3 -11
14 -14 11 -3 18 -1 14 4 -7 12 3 11 27 -1 13 -7 19 -7 19 0 0 5 5 10 11 10 5
0 8 -4 5 -9 -3 -4 12 -5 34 -1 26 5 41 3 44 -4 3 -7 5 -7 5 2 1 16 28 16 34 0
4 -10 6 -9 6 1 1 11 4 11 18 0 12 -10 15 -11 9 -1 -6 9 -1 11 20 8 15 -3 34 0
41 6 7 6 13 6 13 1 0 -5 7 -10 15 -10 8 0 15 4 15 9 0 4 7 8 15 8 8 0 15 6 15
13 0 8 3 8 8 2 4 -6 18 -9 32 -7 14 1 33 4 42 5 10 1 14 5 8 12 -5 6 1 11 17
12 14 0 29 7 34 15 5 7 9 8 9 3 0 -6 -5 -16 -12 -23 -8 -8 -8 -12 -1 -12 6 0
13 7 17 15 3 8 9 15 13 14 19 -3 34 2 29 10 -7 11 22 23 35 15 5 -3 9 -1 9 5
0 6 7 8 15 5 9 -4 15 -1 15 7 0 8 3 10 10 3 13 -13 18 -123 5 -128 -5 -2 -2
-5 9 -5 15 -1 16 -4 6 -16 -10 -12 -9 -16 2 -20 9 -4 13 -20 12 -55 -2 -31 2
-50 8 -50 6 0 8 -3 5 -6 -3 -4 -2 -15 3 -25 7 -12 6 -19 -3 -22 -6 -3 -3 -6 8
-6 16 -1 17 -3 6 -10 -10 -7 -12 -13 -5 -23 12 -15 12 -28 1 -45 -5 -7 -5 -13
0 -13 15 0 30 -47 21 -64 -7 -12 -5 -16 4 -14 8 2 13 -7 13 -24 -1 -14 3 -24
8 -21 5 3 7 0 5 -8 -3 -8 2 -22 10 -32 15 -16 14 -17 -1 -11 -16 6 -16 3 -5
-22 15 -36 32 -57 23 -29 -5 16 -5 17 3 5 7 -9 7 -18 1 -26 -6 -7 -4 -16 6
-24 9 -7 14 -19 11 -27 -3 -7 -1 -13 3 -13 5 0 12 -7 15 -16 3 -8 2 -12 -4 -9
-15 9 2 -28 18 -41 8 -6 12 -16 8 -22 -4 -7 -3 -12 2 -12 5 0 12 -9 15 -20 3
-11 1 -18 -4 -14 -5 3 -9 0 -9 -6 0 -6 -5 -8 -12 -4 -9 6 -9 3 0 -9 12 -14 11
-16 -9 -12 -17 3 -20 2 -11 -7 9 -9 3 -20 -26 -46 -20 -19 -30 -31 -22 -27 8
3 6 -1 -5 -10 -11 -9 -20 -21 -20 -28 0 -7 -9 -11 -20 -9 -15 2 -16 0 -7 -6
18 -12 17 -16 -18 -54 -16 -17 -27 -34 -25 -37 3 -2 -1 -11 -8 -19 -9 -13 -9
-14 0 -8 9 5 11 2 7 -8 -3 -9 -10 -13 -15 -10 -5 3 -9 -4 -9 -15 0 -11 -7 -27
-16 -35 -12 -12 -12 -16 -2 -16 9 0 10 -3 2 -8 -7 -4 -14 -16 -16 -27 -2 -11
-10 -19 -18 -17 -11 2 -11 0 -1 -11 9 -12 8 -16 -5 -21 -13 -5 -14 -9 -4 -21
12 -14 7 -20 -14 -16 -5 1 -2 -9 8 -23 13 -21 14 -24 1 -20 -10 4 -15 0 -15
-11 0 -10 5 -14 13 -9 7 4 6 -1 -3 -12 -17 -21 -19 -42 -7 -61 6 -9 3 -11 -9
-6 -12 4 -15 3 -10 -5 4 -7 2 -12 -6 -12 -10 0 -10 -2 0 -9 15 -9 15 -17 1
-43 -6 -11 -5 -19 1 -23 8 -5 7 -11 -1 -21 -9 -11 -8 -14 2 -14 12 0 12 -2 1
-9 -17 -11 -17 -21 0 -32 10 -7 10 -9 -2 -9 -13 0 -13 -1 0 -10 12 -8 12 -10
1 -10 -11 0 -11 -3 0 -17 10 -11 10 -14 2 -9 -7 4 -13 2 -13 -3 0 -6 6 -11 13
-11 8 0 8 -3 2 -8 -6 -4 -9 -16 -8 -27 2 -11 5 -36 6 -55 2 -20 10 -47 17 -60
13 -24 12 -24 -6 -10 -14 12 -13 8 4 -14 17 -23 20 -31 10 -38 -10 -6 -10 -8
1 -8 7 0 11 -6 7 -15 -6 -17 3 -47 13 -41 4 3 5 -10 3 -28 -3 -25 2 -39 20
-55 16 -16 18 -20 5 -16 -13 6 -16 3 -11 -9 3 -9 12 -16 19 -16 7 0 11 -10 10
-25 -2 -14 1 -25 7 -25 6 0 8 -11 6 -25 -4 -18 -1 -25 10 -25 12 0 12 -3 2
-16 -8 -8 -9 -14 -4 -13 24 4 32 -3 30 -25 -2 -14 3 -27 10 -30 8 -3 14 -14
14 -25 0 -11 9 -25 21 -31 17 -10 18 -14 7 -28 -10 -12 -10 -14 0 -8 7 4 12 1
12 -8 0 -9 5 -16 10 -16 6 0 10 -7 10 -16 0 -8 5 -12 10 -9 9 6 14 -7 8 -21
-2 -3 5 -10 15 -15 9 -6 15 -14 12 -19 -3 -5 0 -12 6 -16 8 -4 9 -3 5 4 -4 8
-2 10 8 6 8 -3 13 -11 10 -19 -3 -7 2 -15 10 -18 9 -4 16 -14 16 -23 0 -12 6
-15 21 -11 16 4 18 3 8 -9 -9 -11 -8 -14 6 -14 11 0 15 -5 11 -16 -3 -8 -2
-12 4 -9 6 3 10 1 10 -4 0 -6 7 -11 16 -11 8 0 12 -5 9 -10 -3 -6 -1 -10 4
-10 16 0 50 -37 43 -46 -4 -4 1 -4 10 -1 22 8 38 -11 38 -42 0 -6 9 -8 19 -6
14 3 18 -1 14 -11 -3 -8 1 -14 11 -14 9 0 16 -4 16 -8 0 -5 11 -15 25 -22 13
-7 22 -17 19 -22 -3 -4 4 -8 16 -8 12 0 25 -10 32 -25 6 -14 16 -25 21 -25 5
0 3 7 -4 17 -13 15 -12 15 8 3 12 -8 19 -18 16 -24 -4 -5 1 -7 10 -3 9 3 16 2
14 -2 -1 -5 2 -8 6 -7 5 0 13 -7 18 -16 5 -10 16 -15 25 -11 8 3 14 2 13 -3
-4 -22 2 -35 12 -28 7 4 20 -4 31 -17 11 -13 17 -18 13 -11 -3 6 -1 12 4 12 6
0 11 -4 11 -8 0 -5 11 -15 25 -22 13 -7 22 -18 18 -23 -3 -6 -1 -7 5 -4 15 10
43 -3 35 -16 -4 -6 -1 -7 6 -3 7 5 21 0 32 -10 11 -9 29 -18 40 -19 12 -1 30
-12 41 -26 11 -13 17 -18 13 -11 -8 16 10 16 27 0 23 -22 75 -48 82 -41 3 3 6
1 6 -5 0 -7 5 -12 11 -12 5 0 7 5 3 12 -5 7 -3 8 5 4 7 -5 10 -15 6 -23 -4
-13 -3 -14 10 -3 10 8 15 9 15 1 0 -6 7 -11 16 -11 9 0 12 -5 8 -13 -5 -8 -2
-8 9 2 11 9 17 10 17 2 0 -6 11 -11 24 -11 14 0 28 -5 32 -12 5 -7 3 -8 -6 -3
-8 5 -11 4 -7 -3 4 -5 15 -9 25 -8 9 2 20 -2 25 -8 5 -8 10 -6 17 4 8 12 10
10 11 -10 0 -14 3 -19 6 -12 2 6 12 12 20 12 10 0 13 -6 9 -16 -5 -14 -4 -15
9 -4 12 10 15 10 15 0 0 -8 3 -10 7 -7 3 4 12 -1 19 -11 10 -12 13 -13 14 -3
0 11 3 11 15 1 8 -7 15 -9 15 -4 0 5 5 2 10 -6 7 -11 10 -12 10 -2 0 10 4 9
16 -3 9 -9 23 -14 30 -11 8 3 14 1 14 -4 0 -6 9 -10 20 -10 11 0 20 -6 20 -12
0 -10 3 -9 9 1 7 11 9 11 14 0 4 -12 7 -11 16 1 9 13 11 13 11 -2 0 -11 5 -15
15 -12 8 4 15 2 15 -4 0 -5 11 -8 25 -7 18 2 25 -2 25 -13 0 -15 2 -15 10 -2
5 8 10 10 10 4 0 -11 3 -12 57 -16 17 -2 35 -7 39 -11 4 -4 18 -7 30 -7 13 0
26 -5 29 -11 4 -6 13 -8 20 -5 7 2 18 -1 24 -7 9 -9 11 -7 6 8 -6 17 -5 18 7
5 7 -8 25 -14 41 -12 17 2 27 -1 27 -10 0 -9 3 -9 10 2 5 8 10 10 10 4 0 -6 6
-11 13 -12 22 -2 42 -7 55 -16 7 -4 20 -2 29 6 9 7 14 8 10 2 -4 -7 2 -14 13
-17 11 -3 20 -1 20 5 0 5 7 2 16 -7 12 -11 20 -13 29 -5 10 8 17 6 27 -9 10
-14 18 -17 28 -10 8 5 25 9 38 9 16 0 21 4 16 13 -6 9 -5 9 7 0 12 -10 18 -10
29 0 10 10 12 8 6 -8 -4 -11 -4 -16 0 -12 4 4 13 2 21 -4 7 -6 13 -8 13 -5 0
4 10 2 21 -5 17 -9 20 -8 14 2 -6 8 -4 10 5 4 19 -12 80 -12 80 0 0 6 5 3 10
-5 9 -13 11 -13 20 0 9 14 15 7 11 -14 -1 -5 4 -4 12 2 17 15 49 11 74 -8 17
-14 17 -14 3 5 -15 19 -15 19 13 2 17 -11 27 -13 27 -6 0 8 4 9 13 0 8 -6 16
-8 20 -5 3 3 19 7 36 8 22 2 28 -1 20 -10 -7 -9 -5 -11 8 -10 10 0 21 6 25 11
5 6 8 6 8 -1 0 -14 30 -14 30 0 0 6 4 5 9 -3 8 -12 12 -12 25 -2 13 11 17 11
22 -3 6 -15 8 -15 21 1 11 13 13 14 10 3 -3 -12 4 -15 32 -15 20 0 39 5 43 10
5 6 8 4 8 -5 0 -13 2 -13 9 -1 8 12 12 12 25 2 14 -11 16 -11 16 5 0 15 2 16
9 5 8 -13 12 -13 27 0 11 9 15 9 10 2 -4 -8 -1 -13 8 -13 9 0 16 6 16 13 0 8
4 7 10 -3 9 -13 11 -13 19 0 9 12 11 12 17 -3 6 -17 7 -17 21 0 8 10 12 12 8
5 -4 -7 0 -12 10 -12 9 0 14 4 10 9 -3 5 0 13 6 17 7 4 9 3 5 -4 -9 -15 7 -23
24 -12 9 5 19 5 27 -2 10 -8 13 -7 13 3 0 9 3 10 8 4 8 -12 93 -14 86 -3 -8
13 11 9 25 -4 10 -9 12 -9 7 -1 -8 15 33 14 53 -1 12 -9 13 -8 6 3 -6 11 -4
13 7 8 9 -3 21 0 28 6 10 9 11 9 6 0 -4 -7 -2 -13 3 -13 6 0 11 4 11 8 0 5 10
8 23 6 12 -1 26 -3 30 -3 5 -1 5 -7 1 -13 -6 -10 -4 -10 7 -2 20 16 78 23 83
10 3 -7 5 -6 5 2 1 15 31 16 31 1 0 -5 -5 -7 -12 -3 -7 5 -8 3 -3 -6 6 -10 11
-9 22 5 9 14 13 15 13 4 1 -10 4 -9 11 4 7 12 15 15 22 9 15 -11 67 -9 86 2 9
6 12 5 7 -2 -4 -7 1 -10 14 -9 11 1 20 4 20 7 0 4 7 7 15 7 8 0 15 -3 15 -7 0
-3 9 -6 19 -6 11 0 17 4 15 8 -10 15 9 8 21 -9 9 -13 14 -13 20 -3 6 9 4 11
-5 5 -9 -6 -11 -4 -5 4 5 8 23 11 51 8 24 -2 47 0 52 5 6 6 12 5 17 -1 4 -7 1
-10 -7 -9 -7 2 -12 -2 -11 -9 2 -8 -4 -10 -14 -6 -12 5 -15 2 -10 -9 3 -10 0
-19 -9 -22 -9 -3 -13 -9 -10 -14 2 -4 -5 -9 -16 -9 -25 -2 -37 -14 -21 -20 10
-4 10 -7 0 -18 -8 -8 -14 -9 -18 -3 -4 6 -15 2 -28 -11 -12 -12 -27 -19 -34
-15 -7 3 -1 -4 13 -15 l25 -21 -27 10 c-19 6 -28 6 -28 -1 0 -6 -6 -17 -14
-24 -10 -11 -16 -11 -26 -2 -10 10 -10 7 0 -13 7 -14 9 -22 5 -18 -4 4 -13 0
-20 -9 -9 -13 -14 -13 -20 -3 -5 8 -4 11 2 7 6 -4 14 0 17 8 4 13 2 13 -14 5
-11 -6 -17 -18 -15 -30 3 -16 0 -18 -20 -10 -16 6 -27 6 -31 -2 -4 -6 -3 -8 3
-5 6 4 13 0 17 -8 3 -8 -3 -19 -14 -25 -29 -16 -38 -11 -10 6 21 12 22 14 5
12 -28 -4 -45 -21 -34 -34 6 -7 1 -10 -14 -10 -12 1 -21 -4 -20 -11 2 -6 -5
-10 -15 -8 -19 3 -75 -39 -65 -49 4 -3 1 -6 -7 -6 -10 0 -10 -4 1 -17 13 -16
12 -17 -3 -5 -9 8 -14 21 -11 30 3 10 -1 8 -11 -6 -10 -13 -22 -19 -29 -15 -7
4 -5 -2 3 -12 9 -11 10 -16 3 -11 -7 4 -13 2 -13 -3 0 -6 -4 -11 -10 -11 -15
0 -49 -37 -42 -46 4 -4 0 -3 -8 2 -24 13 -37 13 -38 -2 -1 -8 -3 -20 -4 -27
-2 -16 -30 -18 -41 -3 -4 6 -5 -1 -3 -17 3 -15 1 -25 -4 -22 -4 3 -11 -1 -14
-7 -3 -7 -4 -2 -1 12 3 14 2 19 -1 12 -3 -6 -11 -9 -16 -6 -7 4 -8 2 -4 -4 7
-11 -6 -17 -28 -13 -5 1 -4 -5 3 -13 10 -12 9 -14 -10 -9 -15 4 -20 3 -15 -5
10 -16 -6 -15 -24 1 -8 6 -4 -1 10 -17 l25 -29 -27 17 c-25 16 -27 16 -40 -3
-8 -12 -18 -18 -21 -14 -4 3 -7 1 -7 -5 0 -7 -7 -9 -17 -5 -17 7 -17 6 -1 -11
21 -21 23 -27 6 -24 -7 2 -12 -3 -10 -10 2 -10 -2 -10 -19 -2 -11 7 -23 9 -27
6 -3 -3 0 -6 6 -6 6 0 9 -6 6 -14 -3 -9 -13 -12 -22 -9 -14 5 -14 2 3 -18 11
-13 13 -18 5 -11 -18 16 -31 16 -28 0 2 -7 -3 -12 -10 -10 -10 2 -12 -4 -7
-20 5 -18 4 -20 -4 -8 -6 8 -21 15 -35 15 -21 1 -23 -2 -15 -17 12 -23 5 -23
-17 -1 -16 16 -16 16 -9 -6 5 -18 4 -22 -6 -16 -9 6 -11 4 -6 -8 4 -11 2 -14
-8 -10 -8 3 -12 10 -8 17 3 6 -3 3 -15 -7 -11 -11 -25 -16 -31 -12 -6 3 -8 0
-5 -8 3 -8 0 -18 -7 -23 -7 -4 -10 -3 -6 2 3 5 -3 10 -13 10 -15 0 -16 -3 -8
-14 6 -7 7 -12 2 -11 -20 3 -35 -1 -30 -10 7 -11 -13 -9 -31 2 -9 6 -11 3 -6
-9 5 -13 2 -15 -15 -10 -12 4 -23 2 -28 -5 -4 -7 -3 -9 2 -6 6 3 16 2 24 -3
19 -12 -50 -8 -70 4 -12 7 -13 6 -3 -5 19 -19 16 -34 -4 -18 -15 13 -15 12 -4
-8 10 -19 9 -22 -4 -17 -8 4 -15 10 -15 15 0 6 -6 4 -14 -3 -8 -7 -11 -17 -8
-23 2 -5 -1 -4 -9 3 -18 17 -29 15 -29 -5 0 -14 2 -15 9 -5 7 11 9 11 14 -1 4
-12 0 -14 -18 -11 -20 3 -23 1 -18 -13 5 -15 3 -15 -11 2 -11 13 -16 14 -13 5
2 -8 -2 -21 -10 -29 -13 -12 -14 -11 -9 10 6 21 5 22 -4 6 -10 -15 -14 -16
-28 -6 -14 11 -15 11 -5 -1 7 -8 13 -20 13 -28 0 -10 -3 -10 -16 2 -19 20 -31
21 -15 2 9 -11 6 -13 -14 -11 -27 3 -42 -9 -25 -20 6 -4 7 -11 4 -17 -4 -6
-10 -5 -15 3 -5 8 -9 9 -9 3 0 -16 25 -35 41 -32 7 2 19 -8 27 -22 13 -23 13
-24 9 -2 -3 12 -1 22 4 22 8 0 13 -13 11 -31 -1 -3 6 -6 14 -7 7 -1 21 -3 29
-4 8 -1 15 -6 15 -11 0 -6 10 -2 22 9 21 17 21 17 8 1 -12 -16 -12 -19 1 -17
28 4 49 0 49 -10 0 -12 -22 -9 -32 5 -5 6 -8 3 -8 -7 0 -9 5 -20 10 -23 6 -3
10 -2 10 4 0 5 8 8 18 6 9 -2 19 -4 22 -4 3 -1 -2 -5 -10 -11 -8 -5 -11 -12
-8 -16 4 -3 14 0 22 8 11 12 12 18 3 27 -8 8 -8 14 2 24 10 10 11 9 6 -4 -4
-10 -2 -20 4 -23 6 -4 8 -13 4 -21 -3 -8 0 -15 7 -15 6 0 8 -4 5 -10 -4 -7 3
-7 20 0 38 14 40 13 14 -11 -13 -11 -17 -17 -9 -13 8 5 23 10 34 11 15 3 16 1
7 -11 -9 -11 -9 -16 0 -22 8 -5 9 -3 4 6 -6 10 -4 12 8 7 9 -3 17 -1 20 6 2 6
6 3 10 -7 4 -9 3 -15 -2 -11 -5 3 -13 0 -17 -7 -4 -7 -4 -10 1 -6 4 4 17 3 28
-3 13 -7 17 -7 13 -1 -3 6 -2 14 4 17 6 4 10 3 9 -2 -5 -27 2 -33 24 -23 20
10 21 10 4 -4 -11 -8 -25 -12 -33 -9 -8 3 -14 0 -14 -7 0 -6 4 -9 9 -6 5 4 12
0 14 -6 4 -10 6 -10 6 0 1 6 6 12 12 12 6 0 9 -6 6 -14 -4 -10 2 -13 21 -11
34 4 43 -2 36 -20 -4 -8 -9 -13 -13 -10 -4 2 -8 -2 -8 -10 0 -11 5 -10 24 2
12 8 20 20 16 26 -4 6 -1 7 6 3 7 -5 10 -10 7 -13 -8 -8 18 -32 28 -25 5 3 6
0 2 -7 -6 -9 -12 -8 -26 4 -12 11 -20 13 -25 5 -4 -6 -1 -9 7 -8 7 2 12 -3 10
-10 -1 -6 1 -11 5 -11 21 3 33 -2 27 -13 -4 -6 -3 -8 2 -5 6 3 16 2 24 -3 8
-5 22 -4 33 2 14 7 17 7 12 -1 -5 -8 296 -11 1135 -11 1000 1 1140 3 1130 15
-10 11 -10 15 -1 15 7 0 9 5 6 10 -3 6 -2 10 4 10 5 0 12 -6 15 -12 4 -7 4 -3
2 9 -2 13 3 28 13 35 14 11 14 11 3 -3 -11 -14 -9 -16 15 -16 16 0 22 2 16 4
-7 3 -13 9 -13 14 0 6 5 7 10 4 6 -3 10 0 10 7 1 8 7 5 17 -7 13 -16 15 -17
10 -2 -4 10 -1 17 6 17 8 0 7 4 -3 11 -12 9 -11 10 8 6 15 -4 22 0 22 10 0 8
-4 12 -9 8 -5 -3 -13 0 -17 7 -4 7 -3 10 1 5 5 -4 17 1 28 10 22 20 26 20 39
1 6 -9 7 -6 3 9 -3 12 -1 24 5 28 6 3 7 11 4 17 -5 7 -2 8 5 3 18 -11 63 16
56 33 -4 11 0 13 15 9 18 -5 19 -3 8 11 -10 12 -10 14 -1 8 21 -12 54 -16 48
-5 -4 5 -10 7 -15 4 -5 -3 -12 -1 -15 5 -4 6 -3 10 2 9 33 -6 62 3 68 21 4 11
11 18 16 14 5 -3 6 -11 2 -17 -4 -7 1 -6 10 2 12 9 14 17 8 25 -12 15 3 41 18
32 6 -4 11 -3 11 3 0 6 6 8 14 5 9 -4 13 2 11 20 -2 15 1 24 6 20 5 -3 6 -10
3 -16 -5 -7 -2 -8 5 -4 7 5 10 15 7 23 -3 8 -2 12 3 9 5 -3 14 1 21 10 7 8 19
13 26 10 9 -3 11 3 8 22 -3 23 -2 24 7 9 5 -9 15 -15 20 -11 6 3 5 12 -3 22
-12 14 -10 14 12 2 23 -12 24 -12 11 3 -12 15 -11 17 3 17 11 0 14 5 10 12 -5
8 -2 9 10 5 10 -4 15 -3 11 3 -6 10 34 36 49 32 5 -2 3 4 -4 13 -11 13 -10 15
3 10 8 -4 18 -1 23 6 4 7 3 10 -4 5 -6 -3 -13 -2 -17 4 -4 6 6 10 24 10 17 0
31 5 31 11 0 5 -6 7 -12 3 -8 -5 -7 -1 2 10 13 17 14 17 21 -1 7 -17 8 -17 9
2 2 11 2 23 1 28 0 4 4 7 10 7 6 0 8 -7 5 -16 -4 -10 -2 -13 6 -8 8 5 9 1 4
-12 -4 -10 -3 -15 1 -10 4 4 8 19 8 34 0 14 7 27 15 29 13 4 13 3 0 -6 -9 -7
-10 -11 -3 -11 6 0 15 5 18 10 4 6 11 8 16 5 5 -3 6 1 3 9 -3 9 -10 13 -15 10
-5 -3 -6 2 -3 11 6 14 8 14 19 -2 11 -15 12 -14 10 10 -2 15 1 25 6 21 5 -3 7
-9 4 -14 -3 -5 -1 -11 4 -15 6 -3 8 3 6 15 -2 12 1 20 9 20 7 0 21 10 32 22
10 12 14 19 9 15 -6 -3 -17 -2 -23 2 -10 6 -9 11 3 21 13 11 15 10 9 -6 -4
-10 -4 -16 1 -12 4 4 14 3 21 -3 10 -8 12 -6 9 11 -3 18 -2 20 10 10 10 -8 15
-8 21 1 4 7 3 9 -3 6 -6 -4 -14 0 -17 9 -3 8 -2 13 3 10 5 -3 14 0 20 8 6 7
22 12 36 11 22 -3 24 -1 13 18 -9 19 -9 20 3 10 11 -9 18 -8 32 1 9 7 17 17
17 22 0 4 -5 3 -12 -4 -15 -15 -28 -15 -28 -1 0 5 4 8 9 5 5 -3 21 6 35 19 25
23 27 24 21 5 -7 -21 -6 -21 14 -3 12 9 21 22 21 28 0 5 -5 3 -11 -5 -9 -13
-10 -13 -6 0 2 8 11 15 18 14 8 -1 21 6 28 14 12 12 11 13 -10 8 l-24 -6 23
11 c12 7 22 16 22 21 0 5 -6 6 -12 3 -7 -4 -5 0 4 8 10 8 16 16 13 19 -3 2 2
5 10 5 11 0 12 -4 4 -13 -7 -8 -7 -14 1 -19 5 -3 10 -5 11 -3 7 28 6 45 -4 57
-10 12 -9 13 3 6 21 -13 41 -15 34 -4 -3 5 1 9 9 9 8 0 20 14 26 30 5 17 13
30 16 30 3 0 3 -4 0 -10 -3 -6 1 -7 10 -4 14 6 14 9 -2 27 -10 11 -13 17 -6
14 6 -4 15 -3 18 3 5 8 12 7 23 -2 14 -12 14 -10 2 12 -13 24 -12 24 5 10 17
-14 17 -14 7 7 -9 16 -9 24 0 29 6 4 9 3 6 -2 -3 -5 0 -15 8 -21 8 -8 15 -9
19 -3 3 6 1 10 -4 10 -6 0 -11 5 -11 11 0 5 4 7 10 4 6 -3 7 1 4 9 -7 19 12
22 20 4 3 -7 4 -4 3 6 -1 10 4 21 12 24 10 3 11 0 5 -9 -7 -12 -5 -12 9 0 13
10 14 17 6 27 -8 10 -6 12 13 9 21 -4 22 -3 5 9 -16 12 -16 14 -2 20 9 3 13 2
10 -4 -3 -6 -1 -10 4 -10 6 0 11 14 11 31 0 18 4 28 10 24 6 -4 7 -11 4 -17
-4 -7 -2 -8 5 -4 7 5 9 16 5 29 -6 20 -5 20 10 8 9 -8 19 -11 23 -7 3 3 1 6
-5 6 -7 0 -11 11 -10 24 1 14 7 24 13 23 5 -1 9 6 9 16 -2 18 -1 18 19 0 12
-10 17 -12 12 -4 -6 11 -4 13 10 7 16 -6 16 -4 4 11 -7 10 -10 15 -5 11 12
-10 39 20 30 34 -5 8 0 7 11 -2 16 -13 18 -13 13 0 -7 22 25 52 48 43 18 -7
18 -6 1 11 -17 17 -17 19 -1 37 14 16 20 17 32 6 13 -9 14 -9 8 1 -4 7 -2 12
4 12 6 0 8 5 4 11 -4 8 -9 7 -15 -2 -6 -10 -9 -10 -9 -2 0 6 9 18 20 26 11 8
17 17 12 22 -4 5 -1 4 7 0 11 -6 13 -4 8 7 -4 11 0 15 11 14 25 -4 51 15 44
33 -5 14 -3 14 11 3 14 -12 16 -11 12 7 -2 11 1 23 6 26 5 4 6 11 3 17 -4 7
-2 8 5 4 6 -4 9 -11 7 -15 -3 -4 1 -8 7 -8 7 0 14 9 14 19 1 10 -2 16 -7 13
-6 -3 -7 1 -4 9 3 9 11 13 17 9 6 -4 8 0 4 11 -4 9 -3 15 2 12 5 -3 22 1 37 9
16 8 22 15 14 15 -9 0 -22 -6 -29 -12 -11 -10 -10 -8 0 10 8 12 19 22 26 22 7
0 13 5 13 11 0 5 -6 7 -12 3 -7 -4 -5 2 5 13 9 11 15 22 12 25 -3 2 2 5 10 6
8 1 22 3 30 4 8 1 13 4 10 6 -3 3 4 11 14 19 13 8 17 21 14 35 -3 17 -2 19 5
9 8 -10 14 -11 28 -1 13 7 14 10 3 7 -9 -3 -16 1 -16 8 0 6 9 12 20 11 11 -1
22 5 24 12 3 6 0 12 -7 12 -6 0 -8 -5 -4 -12 5 -7 3 -8 -6 -3 -10 6 -10 11 3
20 9 7 14 15 10 19 -4 4 0 4 9 1 9 -4 19 -1 24 6 4 7 3 10 -2 6 -6 -3 -11 3
-11 15 -2 19 -1 18 19 -4 15 -16 19 -18 15 -6 -3 10 -2 20 4 24 6 3 8 12 5 20
-3 8 1 14 9 14 7 0 16 4 20 9 3 6 -4 8 -15 6 -11 -2 -18 0 -15 6 4 5 13 9 21
9 8 0 14 8 14 18 0 15 -2 15 -11 2 -9 -13 -10 -13 -6 0 2 8 11 14 19 13 10 -2
14 5 12 26 -2 24 1 28 20 25 11 -2 15 -2 9 2 -19 8 -16 27 3 20 10 -4 13 -2 8
6 -5 8 -2 9 11 4 16 -6 16 -4 4 11 -9 11 -10 14 -2 9 7 -4 21 -2 30 4 16 11
16 11 1 6 -10 -3 -20 -1 -23 4 -4 6 -1 10 5 10 6 0 8 5 4 13 -5 7 -2 7 10 -2
9 -8 16 -10 15 -5 -5 27 1 36 16 24 13 -11 14 -10 9 4 -3 9 -1 16 5 16 6 0 11
5 11 11 0 8 -5 7 -15 -1 -9 -7 -18 -10 -22 -6 -3 3 -1 6 6 6 7 0 9 5 6 10 -4
6 -1 9 7 8 7 -2 12 3 10 11 -3 12 -1 12 14 0 11 -8 15 -9 10 -2 -11 20 11 52
34 48 11 -2 18 0 15 5 -3 4 1 11 7 14 7 3 2 3 -12 0 -23 -5 -23 -4 -8 9 10 8
15 17 11 20 -3 4 -3 7 2 7 4 0 14 -8 22 -17 8 -10 11 -12 8 -5 -4 7 1 22 11
34 11 11 19 33 20 50 1 17 7 34 15 39 8 5 10 9 5 9 -5 0 -2 8 7 18 10 10 15
21 12 24 -3 2 2 5 10 5 13 0 13 -3 -2 -19 -9 -10 -12 -18 -7 -18 6 0 21 18 34
39 14 21 29 36 34 33 5 -3 6 0 2 6 -10 17 -14 15 -30 -15 -8 -16 -15 -23 -16
-18 0 18 31 55 46 55 8 0 13 4 10 8 -3 5 3 18 14 30 14 15 16 22 7 26 -7 4 -2
4 10 2 15 -2 20 0 16 10 -2 7 -10 12 -16 10 -7 -1 -9 -1 -4 1 4 3 5 9 2 14 -4
5 1 6 10 3 11 -5 18 0 22 15 3 11 9 21 14 21 5 0 9 5 9 11 0 5 -5 7 -12 3 -7
-4 -8 -3 -4 5 6 9 11 9 22 0 12 -10 13 -9 8 5 -3 9 -11 16 -17 16 -6 0 -7 3
-4 6 4 4 19 -1 34 -11 18 -12 24 -13 17 -4 -6 8 -14 22 -17 32 -6 16 -5 16 21
0 24 -16 26 -16 14 -1 -17 21 5 63 24 47 9 -8 11 -5 7 10 -3 14 -1 21 8 21 11
0 11 2 -1 10 -13 8 -12 10 4 10 19 0 19 0 0 22 l-19 22 25 -17 c33 -23 48 -22
19 1 -17 15 -19 21 -9 27 9 5 11 4 6 -3 -4 -7 -2 -12 3 -12 6 0 11 10 11 23 0
18 2 19 11 7 7 -11 9 -7 5 17 -3 23 -1 30 9 26 8 -2 11 -12 9 -21 -4 -14 -3
-13 6 1 10 15 8 21 -6 31 -13 10 -14 15 -4 21 9 5 11 4 6 -3 -4 -7 -2 -12 3
-12 15 0 14 23 -1 38 -8 8 -5 10 16 6 25 -4 26 -3 15 18 -12 22 -11 22 6 8 11
-9 16 -10 11 -2 -4 7 -2 12 6 12 8 1 6 6 -6 15 -19 15 -12 20 21 16 6 -1 15 4
19 10 4 7 3 9 -3 6 -6 -4 -13 2 -16 14 -5 20 -5 20 21 3 18 -11 23 -13 15 -3
-9 11 -8 18 1 31 7 10 15 16 17 13 3 -2 4 8 4 23 -1 15 1 32 4 37 6 10 7 16
10 35 0 6 6 10 12 10 8 0 8 -5 -1 -15 -7 -8 -9 -15 -5 -15 4 0 1 -8 -6 -17
-12 -16 -11 -16 8 0 22 19 24 32 9 56 -7 11 -4 13 11 9 11 -3 21 0 23 6 8 30
9 1236 1 1231 -6 -3 -13 0 -17 6 -4 8 -9 7 -15 -2 -7 -11 -9 -11 -10 -1 -1 6
-2 17 -3 22 0 6 -5 9 -11 8 -5 -2 -9 -9 -8 -17 1 -10 -2 -10 -10 -2 -9 9 -8
17 1 34 l13 22 -20 -23 -20 -22 -3 22 c-2 18 -9 22 -35 22 -18 -1 -32 1 -31 5
2 18 -3 31 -12 31 -5 0 -7 -8 -4 -17 3 -10 -1 -8 -8 5 -8 12 -17 20 -20 17 -8
-8 -48 17 -48 29 0 5 8 2 18 -7 15 -14 19 -15 19 -2 0 8 -4 12 -8 9 -4 -2 -10
0 -14 5 -3 6 -12 8 -20 5 -8 -4 -12 -11 -8 -17 3 -5 1 -7 -5 -4 -5 4 -8 17 -6
30 2 12 2 16 -2 10 -3 -7 -10 -13 -15 -13 -6 0 -7 6 -3 13 6 9 4 9 -8 -1 -14
-11 -16 -10 -13 5 1 10 8 17 15 15 6 -1 9 2 5 8 -5 8 -11 7 -21 -1 -13 -11
-19 -5 -15 15 1 5 -10 1 -24 -8 -15 -10 -29 -15 -33 -12 -3 3 0 6 6 6 7 0 2
11 -10 25 -17 20 -24 22 -36 12 -13 -10 -14 -8 -7 13 7 21 6 23 -7 12 -16 -13
-48 -7 -48 9 0 5 -3 8 -7 7 -5 -1 -18 3 -30 10 -13 7 -23 10 -23 7 0 -3 -9 -1
-20 5 -11 6 -20 20 -20 32 0 21 0 21 -15 2 -14 -18 -14 -18 -9 2 3 12 1 25 -5
28 -6 4 -9 1 -5 -7 4 -11 -2 -13 -23 -10 -15 2 -33 5 -40 5 -7 1 -12 4 -11 7
2 17 -3 31 -9 30 -22 -4 -33 2 -27 14 5 8 2 7 -9 -2 -15 -12 -20 -11 -36 8
-11 12 -22 22 -25 22 -27 -3 -26 2 2 19 18 11 37 18 42 15 4 -3 11 2 14 11 5
13 9 14 20 5 10 -9 16 -9 21 -1 4 6 14 9 22 6 10 -4 13 -2 10 8 -4 10 0 12 15
8 14 -3 19 -1 14 6 -5 8 -1 10 10 5 13 -5 16 -3 11 10 -4 11 -2 14 8 10 8 -3
12 -10 8 -16 -4 -6 -1 -7 6 -3 7 5 10 14 8 20 -3 7 1 13 9 13 9 0 13 -7 9 -16
-5 -15 -4 -15 7 0 7 9 19 14 27 11 8 -3 11 0 7 7 -4 6 -2 11 4 11 6 0 8 5 4
12 -4 7 -3 8 5 4 6 -4 23 0 38 9 14 9 23 13 20 8 -4 -5 0 -10 7 -10 7 0 13 7
12 16 -1 9 6 16 14 16 8 1 14 6 13 12 -1 6 4 14 13 17 10 4 13 2 8 -7 -5 -8
-2 -8 9 2 9 7 14 17 11 22 -3 5 3 6 13 2 10 -3 15 -3 11 1 -4 5 -1 14 5 21 9
10 15 10 26 1 12 -8 13 -8 7 2 -4 7 -2 12 5 12 7 0 10 3 6 6 -10 10 22 36 38
30 9 -3 12 0 8 9 -3 8 -10 12 -16 8 -6 -3 -7 -1 -3 5 4 7 12 12 18 12 6 0 21
11 34 25 13 14 21 25 18 25 -3 0 1 6 8 14 7 8 16 12 20 9 4 -2 5 3 2 11 -4 10
-1 16 10 16 10 0 13 6 10 15 -4 8 -1 15 6 15 7 0 10 7 6 16 -3 8 -2 13 2 10 4
-3 14 4 21 16 9 14 9 18 1 13 -9 -6 -9 -2 -1 14 7 11 14 21 17 21 3 0 2 -6 -2
-12 -4 -7 -3 -9 1 -5 5 4 10 14 12 22 7 35 9 41 17 53 4 7 5 16 2 19 -3 3 2
12 12 20 9 8 11 12 4 8 -7 -4 -3 10 8 31 15 25 18 39 10 44 -6 4 -8 14 -4 23
3 9 9 15 13 13 3 -2 7 12 8 32 6 104 8 122 14 122 3 0 6 7 6 15 0 8 -4 12 -8
9 -4 -2 -11 0 -14 6 -4 6 -1 9 7 8 14 -3 14 5 3 35 -5 11 -2 17 6 17 11 0 11
3 -1 10 -12 8 -12 10 -1 10 11 0 11 3 0 17 -12 14 -12 16 1 9 13 -7 13 -6 0 6
-15 13 -21 40 -21 86 1 12 -4 22 -10 22 -7 0 -7 6 2 17 8 9 9 14 3 10 -7 -4
-14 0 -18 8 -3 10 1 15 12 16 14 0 15 2 2 7 -17 8 -19 20 -7 39 6 9 3 11 -9 6
-12 -4 -15 -3 -10 5 4 7 2 12 -6 12 -11 0 -10 2 0 9 11 7 11 9 -2 14 -9 4 -15
10 -14 14 1 4 -3 18 -10 30 -9 17 -9 22 1 26 7 3 5 6 -5 6 -11 1 -15 6 -12 16
4 8 -1 17 -9 21 -9 3 -13 12 -10 21 4 11 2 14 -5 9 -11 -6 -17 5 -13 27 0 4
-4 7 -10 7 -5 0 -7 5 -4 10 3 6 -1 10 -10 10 -9 0 -14 4 -11 9 3 5 -1 11 -9
15 -8 3 -15 10 -15 16 0 16 -26 40 -35 32 -4 -4 -6 -2 -5 3 4 19 -2 50 -7 38
-3 -10 -7 -10 -18 0 -7 7 -11 15 -8 20 2 4 -2 7 -10 7 -8 0 -25 13 -38 29 -19
24 -26 28 -39 18 -8 -6 -12 -7 -8 -3 10 12 -50 69 -63 61 -5 -4 -17 -1 -26 7
-14 11 -16 11 -8 -2 6 -12 5 -13 -6 -2 -7 6 -22 12 -33 12 -18 0 -19 2 -6 11
12 9 11 10 -6 6 -12 -2 -28 -1 -35 4 -8 5 -17 3 -21 -4 -5 -8 -8 -5 -8 8 0 17
-2 17 -10 5 -5 -8 -10 -11 -10 -6 0 5 -6 3 -14 -3 -10 -8 -16 -9 -21 -1 -3 6
-11 8 -16 5 -5 -4 -9 2 -10 12 0 10 -3 13 -6 6 -2 -7 -9 -13 -14 -13 -6 0 -8
3 -6 8 3 4 -5 7 -18 7 -13 0 -21 -4 -18 -10 2 -5 -1 -3 -9 5 -7 8 -26 16 -42
17 -16 1 -33 8 -38 15 -5 9 -8 7 -8 -6 0 -20 0 -20 -16 0 -8 10 -13 13 -9 7 3
-7 1 -13 -4 -13 -6 0 -11 6 -11 13 0 8 -4 7 -10 -3 -5 -8 -10 -10 -10 -3 0 6
-11 10 -25 9 -15 -2 -22 1 -18 7 4 6 0 8 -10 4 -9 -3 -19 -2 -22 3 -4 6 -19
10 -36 10 -16 0 -29 5 -29 11 0 8 -4 8 -14 0 -10 -8 -16 -9 -21 -1 -3 5 -18
10 -32 10 -14 0 -32 8 -40 18 -8 9 -11 11 -7 3 4 -9 2 -12 -7 -9 -8 3 -13 10
-12 16 3 11 -15 11 -34 -1 -6 -4 -18 -1 -25 6 -7 8 -20 12 -30 9 -10 -2 -18 1
-18 7 0 6 -7 8 -17 4 -12 -5 -14 -3 -8 7 5 9 4 11 -4 6 -6 -4 -19 -2 -28 6
-14 11 -16 11 -8 -2 8 -13 6 -13 -8 -2 -9 8 -21 11 -26 8 -5 -4 -14 2 -20 11
-8 13 -10 14 -11 4 0 -12 -3 -12 -12 -3 -7 7 -20 12 -31 12 -10 0 -25 7 -33
15 -19 18 -38 20 -28 3 6 -10 5 -10 -8 -1 -8 7 -18 10 -21 6 -4 -3 -7 -1 -7 6
0 7 -4 10 -9 6 -5 -3 -13 0 -16 6 -4 5 -13 8 -21 5 -8 -3 -17 1 -20 9 -3 7
-12 11 -20 8 -8 -3 -14 0 -14 7 0 10 -3 10 -15 0 -11 -9 -15 -9 -15 -1 0 7 -4
9 -10 6 -5 -3 -10 0 -10 7 0 9 -3 9 -10 -2 -8 -13 -10 -12 -10 3 0 10 -4 15
-10 12 -5 -3 -10 -2 -10 4 0 6 -16 9 -35 7 -25 -2 -34 1 -31 10 3 9 -4 11 -25
9 -16 -2 -27 0 -24 5 8 13 -25 28 -48 22 -12 -3 -18 -1 -14 5 4 6 -3 8 -18 5
-15 -2 -25 0 -25 7 0 7 -4 9 -10 6 -5 -3 -10 -2 -10 4 0 5 -8 8 -17 6 -10 -1
-23 2 -30 7 -7 5 -17 7 -23 3 -6 -4 -10 -3 -9 2 4 20 -2 24 -18 12 -11 -10
-14 -10 -9 -1 6 11 -5 17 -26 13 -5 0 -8 3 -8 7 0 5 -7 9 -15 10 -8 1 -22 3
-30 4 -8 1 -12 5 -9 10 3 4 -6 8 -20 8 -14 0 -28 5 -31 10 -3 6 -15 10 -26 10
-10 0 -19 6 -19 13 0 8 -4 7 -10 -3 -7 -12 -10 -12 -10 -1 0 7 -6 11 -15 8 -8
-4 -17 -1 -21 5 -5 7 -2 8 7 3 8 -5 11 -4 6 0 -4 5 -20 11 -35 13 -15 2 -29 7
-30 13 -2 5 -8 7 -13 3 -5 -3 -9 1 -9 8 0 9 -3 9 -10 -2 -7 -11 -10 -11 -10
-2 0 7 -4 10 -10 7 -5 -3 -10 -1 -10 6 0 8 -5 7 -17 -2 -9 -8 -14 -9 -11 -4 3
6 0 16 -8 23 -8 7 -14 8 -14 2 0 -5 -9 -2 -20 7 -17 15 -28 18 -77 25 -7 1
-15 8 -17 15 -3 8 -10 11 -16 8 -5 -3 -10 -1 -10 4 0 6 -3 10 -7 10 -5 -1 -15
-1 -23 0 -13 1 -13 2 0 11 13 9 13 10 0 10 -13 0 -13 1 0 10 8 5 10 10 5 10
-6 0 -11 9 -11 19 0 11 3 18 7 15 4 -2 9 3 13 11 3 10 -1 15 -12 15 -14 0 -14
2 -3 9 8 5 16 19 18 31 2 14 -1 19 -9 14 -7 -5 -8 -3 -3 5 11 18 14 81 4 87
-5 2 -6 11 -3 19 4 8 9 13 13 10 4 -2 8 2 8 10 0 8 -5 12 -10 8 -5 -3 -6 3 -3
15 10 29 11 156 2 171 -4 6 0 14 9 17 13 5 14 9 4 15 -7 4 -14 18 -14 31 0 13
-4 29 -9 37 -6 10 -6 12 2 7 7 -4 12 -2 12 3 0 6 -5 11 -12 11 -9 0 -9 3 0 12
15 15 16 32 2 23 -14 -9 -12 8 3 24 7 9 7 11 1 8 -7 -4 -14 0 -18 8 -3 8 -1
15 5 15 6 0 6 6 1 18 -5 9 -7 29 -5 45 2 15 -1 27 -7 27 -5 0 -10 5 -10 11 0
5 4 8 9 5 5 -4 8 1 7 11 -2 9 -11 20 -22 24 -16 6 -16 8 -2 8 9 1 20 6 24 13
4 6 3 8 -2 5 -6 -3 -16 3 -23 15 -7 11 -8 17 -3 14 14 -8 12 47 -2 57 -8 5 -7
10 4 17 13 8 12 12 -4 27 -19 17 -19 17 -5 -2 13 -19 13 -19 -4 -6 -13 10 -14
17 -6 27 7 9 6 20 -8 40 -20 31 -23 55 -8 66 6 5 3 8 -7 8 -12 0 -15 6 -10 22
4 16 2 19 -8 13 -8 -5 -11 -4 -6 3 3 6 -1 18 -10 26 -8 9 -12 16 -9 16 4 0 0
12 -10 26 -9 15 -12 23 -6 20 6 -4 11 -3 11 2 0 6 -7 13 -16 16 -8 3 -12 10
-9 16 3 6 0 13 -9 16 -8 3 -13 14 -11 24 2 12 -4 21 -16 25 -11 4 -17 10 -14
14 2 5 -4 16 -14 25 -15 14 -20 14 -25 4 -3 -7 -3 -3 0 10 4 15 0 24 -10 28
-9 3 -13 10 -10 15 3 5 0 8 -8 7 -7 -2 -12 5 -12 15 1 12 -2 15 -10 8 -13 -10
-39 12 -28 25 4 4 2 4 -5 0 -6 -3 -14 -2 -18 3 -8 14 -65 41 -87 41 -12 0 -17
4 -12 13 5 9 4 9 -6 0 -10 -9 -16 -8 -28 4 -11 11 -17 12 -20 4 -3 -8 -8 -9
-16 -2 -7 6 -15 8 -18 6z m-998 -799 c0 -2 -8 -10 -17 -17 -16 -13 -17 -12 -4
4 13 16 21 21 21 13z m-850 -112 c0 -8 -19 -13 -24 -6 -3 5 1 9 9 9 8 0 15 -2
15 -3z m3310 -3086 c0 -9 4 -8 10 2 9 13 10 13 10 0 0 -13 1 -13 10 0 8 13 10
13 10 -2 0 -17 36 -35 47 -24 3 3 20 -3 37 -13 17 -11 36 -20 41 -21 6 -1 12
-4 15 -7 3 -4 -1 -3 -9 2 -10 6 -12 2 -6 -16 5 -18 4 -20 -4 -9 -8 12 -13 12
-23 2 -7 -7 -13 -18 -13 -25 -1 -7 -7 -11 -13 -9 -10 2 -10 -3 -2 -19 14 -24
4 -40 -11 -19 -9 13 -10 12 -5 -2 3 -10 1 -20 -4 -23 -16 -10 -11 -25 8 -26
13 -1 14 -2 1 -6 -8 -2 -19 -18 -25 -36 -6 -21 -15 -32 -26 -31 -13 1 -15 -3
-8 -22 8 -19 6 -22 -10 -19 -13 3 -17 -1 -13 -11 3 -7 9 -11 14 -8 5 3 6 -2 3
-10 -7 -19 -24 -21 -25 -3 0 6 -4 3 -9 -8 -5 -14 -2 -26 8 -38 14 -15 14 -18
2 -15 -8 2 -14 -3 -12 -10 1 -8 -1 -11 -6 -8 -4 2 -14 1 -22 -5 -10 -6 -11 -9
-2 -9 6 0 12 -5 12 -10 0 -6 -8 -10 -17 -8 -14 2 -18 -4 -19 -27 -4 -65 -24
-109 -39 -84 -5 7 -4 10 2 6 6 -4 10 11 11 36 1 58 6 77 23 88 12 7 12 9 -1 9
-9 0 -11 3 -5 8 6 4 10 18 10 32 0 14 3 32 7 41 4 9 2 22 -5 29 -9 10 -9 11 1
6 10 -6 13 3 12 36 -1 70 1 79 11 72 12 -7 7 19 -6 28 -6 5 -5 8 4 8 11 0 11
3 1 15 -9 11 -9 15 -1 15 7 0 9 5 6 10 -3 6 -2 10 4 10 6 0 7 7 4 17 -5 12 -3
14 7 8 10 -6 11 -4 4 6 -12 18 -14 109 -2 109 4 0 8 -6 8 -12z m150 -98 c0 -5
-5 -10 -11 -10 -5 0 -7 5 -4 10 3 6 8 10 11 10 2 0 4 -4 4 -10z m-15 -40 c3
-5 1 -10 -4 -10 -6 0 -11 5 -11 10 0 6 2 10 4 10 3 0 8 -4 11 -10z m1173 -85
c-3 -3 -9 2 -12 12 -6 14 -5 15 5 6 7 -7 10 -15 7 -18z m-8248 1 c0 -2 -7 -7
-16 -10 -8 -3 -12 -2 -9 4 6 10 25 14 25 6z m8314 -37 c-3 -5 -10 -7 -15 -3
-5 3 -7 10 -3 15 3 5 10 7 15 3 5 -3 7 -10 3 -15z m-1405 -223 c9 -11 9 -16 0
-22 -8 -4 -9 -3 -5 4 4 7 2 12 -3 12 -6 0 -11 5 -11 10 0 14 5 13 19 -4z
m1666 -1306 c-9 -16 -18 -30 -21 -30 -2 0 2 14 11 30 9 17 18 30 21 30 2 0 -2
-13 -11 -30z m-499 -793 c-3 -20 -16 -37 -29 -37 -7 0 -4 5 5 10 10 6 15 19
13 30 -2 11 0 18 5 15 4 -3 7 -11 6 -18z m-432 -596 c3 -5 -7 -16 -22 -25
l-27 -17 22 19 c12 11 19 22 16 26 -4 3 -4 6 0 6 3 0 8 -4 11 -9z m-224 -275
c0 -3 -4 -8 -10 -11 -5 -3 -10 -1 -10 4 0 6 5 11 10 11 6 0 10 -2 10 -4z
m-3548 -616 c-12 -12 -22 -18 -22 -14 0 12 33 45 38 39 3 -3 -4 -14 -16 -25z
m48 16 c0 -3 -4 -8 -10 -11 -5 -3 -10 -1 -10 4 0 6 5 11 10 11 6 0 10 -2 10
-4z m2965 -6 c-3 -5 -14 -10 -23 -9 -14 0 -13 2 3 9 27 11 27 11 20 0z m-3185
-134 c0 -3 -4 -8 -10 -11 -5 -3 -10 -1 -10 4 0 6 5 11 10 11 6 0 10 -2 10 -4z
m-209 -143 c-12 -20 -14 -14 -5 12 4 9 9 14 11 11 3 -2 0 -13 -6 -23z m3034
-53 c-3 -5 -12 -10 -18 -10 -7 0 -6 4 3 10 19 12 23 12 15 0z m-3299 -142 c4
-7 3 -8 -4 -4 -7 4 -12 2 -12 -5 0 -7 -3 -10 -6 -6 -6 5 3 27 11 27 2 0 7 -5
11 -12z m-448 -227 c-3 -15 15 -40 25 -34 6 4 7 1 2 -7 -6 -10 -10 -10 -20 3
-9 13 -15 14 -25 4 -12 -10 -12 -9 -2 4 8 10 8 19 1 26 -6 6 -5 10 5 10 8 0
14 -3 14 -6z m3302 -1 c0 -5 -5 -10 -11 -10 -5 0 -7 5 -4 10 3 6 8 10 11 10 2
0 4 -4 4 -10z m-3197 -69 c13 8 15 6 11 -5 -6 -16 -41 -13 -58 5 -8 9 -6 9 9
1 13 -7 27 -7 38 -1z m161 -93 c-3 -4 -9 -8 -15 -8 -5 0 -9 4 -9 8 0 5 7 9 15
9 8 0 12 -4 9 -9z m2836 3 c0 -6 -4 -12 -8 -15 -5 -3 -9 1 -9 9 0 8 4 15 9 15
4 0 8 -4 8 -9z m-2665 -110 c3 -5 2 -12 -3 -15 -5 -3 -9 1 -9 9 0 17 3 19 12
6z m112 -96 c0 -8 -4 -12 -9 -9 -5 3 -6 10 -3 15 9 13 12 11 12 -6z"/>
<path d="M8564 4912 c3 -5 0 -13 -6 -15 -9 -4 -10 -6 -1 -6 17 -1 25 16 12 25
-7 4 -9 3 -5 -4z"/>
<path d="M8460 4786 c0 -2 8 -10 18 -17 15 -13 16 -12 3 4 -13 16 -21 21 -21
13z"/>
<path d="M8486 4745 c-11 -8 -15 -15 -9 -15 6 0 16 7 23 15 16 19 11 19 -14 0z"/>
<path d="M8430 4639 c0 -5 5 -7 10 -4 6 3 10 8 10 11 0 2 -4 4 -10 4 -5 0 -10
-5 -10 -11z"/>
<path d="M3067 9127 c-3 -8 1 -14 8 -14 7 0 11 6 8 14 -3 7 -6 13 -8 13 -2 0
-5 -6 -8 -13z"/>
<path d="M2998 9112 c-11 -15 -11 -15 2 -6 8 6 23 10 33 8 11 -1 16 0 13 4
-13 12 -36 10 -48 -6z"/>
<path d="M5275 8250 c3 -5 8 -10 11 -10 2 0 4 5 4 10 0 6 -5 10 -11 10 -5 0
-7 -4 -4 -10z"/>
<path d="M366 6613 c-6 -14 -5 -15 5 -6 7 7 10 15 7 18 -3 3 -9 -2 -12 -12z"/>
<path d="M9440 5145 c0 -2 6 -8 13 -14 10 -8 14 -7 14 2 0 8 -6 14 -14 14 -7
0 -13 -1 -13 -2z"/>
<path d="M9535 5101 c-3 -6 4 -15 15 -21 13 -7 20 -7 20 0 0 5 -7 10 -16 10
-8 0 -12 5 -9 10 3 6 4 10 1 10 -3 0 -7 -4 -11 -9z"/>
<path d="M9643 5045 c0 -8 6 -16 14 -19 7 -3 13 0 13 7 0 8 4 7 11 -3 9 -13
10 -13 6 0 -2 8 -8 15 -13 15 -5 0 -14 3 -20 7 -6 4 -11 1 -11 -7z"/>
<path d="M9720 5021 c0 -7 -5 -9 -12 -5 -7 5 -8 3 -3 -5 5 -9 10 -10 18 -2 6
6 8 14 4 18 -4 3 -7 1 -7 -6z"/>
<path d="M9740 5001 c0 -6 4 -13 10 -16 6 -3 7 1 4 9 -7 18 -14 21 -14 7z"/>
<path d="M10090 4810 c-9 -6 -10 -10 -3 -10 6 0 15 5 18 10 8 12 4 12 -15 0z"/>
<path d="M9796 2775 c-9 -26 -7 -32 5 -12 6 10 9 21 6 23 -2 3 -7 -2 -11 -11z"/>
<path d="M9665 2611 c-3 -5 -2 -12 3 -15 5 -3 9 1 9 9 0 17 -3 19 -12 6z"/>
<path d="M9566 2457 c3 -10 9 -15 12 -12 3 3 0 11 -7 18 -10 9 -11 8 -5 -6z"/>
<path d="M2156 2272 c-3 -5 1 -9 9 -9 8 0 12 4 9 9 -3 4 -7 8 -9 8 -2 0 -6 -4
-9 -8z"/>
<path d="M9400 2239 c0 -5 5 -7 10 -4 6 3 10 8 10 11 0 2 -4 4 -10 4 -5 0 -10
-5 -10 -11z"/>
<path d="M9151 1906 c-8 -10 -9 -16 -1 -21 6 -4 9 -1 8 7 -2 7 3 12 10 10 8
-1 11 2 7 8 -8 13 -10 13 -24 -4z"/>
<path d="M5799 1427 c6 -8 7 -18 3 -22 -4 -5 -1 -5 6 -1 10 6 10 11 1 22 -6 8
-14 14 -16 14 -3 0 0 -6 6 -13z"/>
<path d="M8730 1415 c-7 -9 -10 -18 -7 -22 4 -3 9 2 13 11 3 9 11 13 17 9 6
-3 7 -1 3 5 -9 15 -11 15 -26 -3z"/>
<path d="M5750 1376 c0 -2 7 -7 16 -10 8 -3 12 -2 9 4 -6 10 -25 14 -25 6z"/>
<path d="M5720 1360 c0 -5 5 -10 11 -10 5 0 7 5 4 10 -3 6 -8 10 -11 10 -2 0
-4 -4 -4 -10z"/>
<path d="M8505 1160 c-3 -5 -1 -10 4 -10 6 0 11 5 11 10 0 6 -2 10 -4 10 -3 0
-8 -4 -11 -10z"/>
<path d="M5213 955 c0 -8 4 -12 9 -9 5 3 6 10 3 15 -9 13 -12 11 -12 -6z"/>
<path d="M8174 839 c-4 -7 -3 -9 4 -5 5 3 13 0 15 -6 4 -9 6 -10 6 -1 1 17
-16 25 -25 12z"/>
<path d="M7615 350 c-3 -5 -1 -10 4 -10 6 0 11 5 11 10 0 6 -2 10 -4 10 -3 0
-8 -4 -11 -10z"/>
<path d="M7405 190 c-3 -6 1 -7 9 -4 18 7 21 14 7 14 -6 0 -13 -4 -16 -10z"/>
<path d="M7356 152 c-3 -5 1 -9 9 -9 8 0 12 4 9 9 -3 4 -7 8 -9 8 -2 0 -6 -4
-9 -8z"/>
<path d="M4676 138 c3 -5 10 -6 15 -3 13 9 11 12 -6 12 -8 0 -12 -4 -9 -9z"/>
</g>
</svg>
